HIERARCHY
ROOT hip
{
  OFFSET 0.00112043 5.09927 -9.65472
  CHANNELS 6 Xposition Yposition Zposition Zrotation Xrotation Yrotation
  JOINT abdomen
  {
    OFFSET 0 -1.186 -1.5018
    CHANNELS 3 Zrotation Xrotation Yrotation
    JOINT abdomen2
    {
      OFFSET 0 9.964 0.2134
      CHANNELS 3 Zrotation Xrotation Yrotation
      JOINT chest
      {
        OFFSET 0 13.134 -3.2573
        CHANNELS 3 Zrotation Xrotation Yrotation
        JOINT neck
        {
          OFFSET 0 20.686 -1.6905
          CHANNELS 3 Zrotation Xrotation Yrotation
          JOINT head
          {
            OFFSET 0 7.238 -0.1237
            CHANNELS 3 Zrotation Xrotation Yrotation
            End Site
            {
              OFFSET 0 0 0
            }
          }
        }
        JOINT lCollar
        {
          OFFSET 1.7069 20.075 5.0056
          CHANNELS 3 Zrotation Xrotation Yrotation
          JOINT lShldr
          {
            OFFSET 13.6458 -0.047 -4.849
            CHANNELS 3 Zrotation Xrotation Yrotation
            JOINT lForeArm
            {
              OFFSET 28.3255 -0.9759 2.2888
              CHANNELS 3 Zrotation Xrotation Yrotation
              JOINT lHand
              {
                OFFSET 22.1583 -0.53 10.8316
                CHANNELS 3 Zrotation Xrotation Yrotation
                JOINT lThumb1
                {
                  OFFSET 0.786 0.112 2.5817
                  CHANNELS 3 Zrotation Xrotation Yrotation
                  JOINT lThumb2
                  {
                    OFFSET 0.3601 -0.878 4.2331
                    CHANNELS 3 Zrotation Xrotation Yrotation
                    JOINT lThumb2_End
                    {
                      OFFSET 1.8127 -1.216 2.2227
                      CHANNELS 3 Zrotation Xrotation Yrotation
                      End Site
                      {
                        OFFSET 0.0181 -0.0122 0.0222
                      }
                    }
                  }
                }
                JOINT lCarpal1
                {
                  OFFSET 0.9571 1.114 1.7695
                  CHANNELS 3 Zrotation Xrotation Yrotation
                  JOINT lIndex1
                  {
                    OFFSET 4.1246 0.487 4.1451
                    CHANNELS 3 Zrotation Xrotation Yrotation
                    JOINT lIndex2
                    {
                      OFFSET 3.4052 -1.454 2.7682
                      CHANNELS 3 Zrotation Xrotation Yrotation
                      JOINT lIndex2_End
                      {
                        OFFSET 1.4531 -1.795 1.2713
                        CHANNELS 3 Zrotation Xrotation Yrotation
                        End Site
                        {
                          OFFSET 0.0145 -0.0179 0.0127
                        }
                      }
                    }
                  }
                  JOINT lMid1
                  {
                    OFFSET 5.6954 0.21 2.1184
                    CHANNELS 3 Zrotation Xrotation Yrotation
                    JOINT lMid2
                    {
                      OFFSET 3.9766 -1.54 2.3863
                      CHANNELS 3 Zrotation Xrotation Yrotation
                      JOINT lMid2_End
                      {
                        OFFSET 1.4042 -1.926 1.125
                        CHANNELS 3 Zrotation Xrotation Yrotation
                        End Site
                        {
                          OFFSET 0.014 -0.0193 0.0113
                        }
                      }
                    }
                  }
                }
                JOINT lCarpal2
                {
                  OFFSET 2.0956 0.66 -0.3894
                  CHANNELS 3 Zrotation Xrotation Yrotation
                  JOINT lRing1
                  {
                    OFFSET 5.0395 -0.09 2.4971
                    CHANNELS 3 Zrotation Xrotation Yrotation
                    JOINT lRing2
                    {
                      OFFSET 3.7921 -1.552 1.4806
                      CHANNELS 3 Zrotation Xrotation Yrotation
                      JOINT lRing2_End
                      {
                        OFFSET 1.4655 -1.808 0.9609
                        CHANNELS 3 Zrotation Xrotation Yrotation
                        End Site
                        {
                          OFFSET 0.0147 -0.0181 0.0096
                        }
                      }
                    }
                  }
                  JOINT lPinky1
                  {
                    OFFSET 4.9141 -1.269 0.3591
                    CHANNELS 3 Zrotation Xrotation Yrotation
                    JOINT lPinky2
                    {
                      OFFSET 3.1477 -1.685 0.8462
                      CHANNELS 3 Zrotation Xrotation Yrotation
                      JOINT lPinky2_End
                      {
                        OFFSET 0.8055 -1.585 0.7955
                        CHANNELS 3 Zrotation Xrotation Yrotation
                        End Site
                        {
                          OFFSET 0.0081 -0.0158 0.008
                        }
                      }
                    }
                  }
                }
              }
            }
          }
        }
        JOINT rCollar
        {
          OFFSET -1.7069 20.075 5.0056
          CHANNELS 3 Zrotation Xrotation Yrotation
          JOINT rShldr
          {
            OFFSET -13.6458 -0.047 -4.849
            CHANNELS 3 Zrotation Xrotation Yrotation
            JOINT rForeArm
            {
              OFFSET -28.3255 -0.9759 2.2888
              CHANNELS 3 Zrotation Xrotation Yrotation
              JOINT rHand
              {
                OFFSET -22.1583 -0.53 10.8316
                CHANNELS 3 Zrotation Xrotation Yrotation
                JOINT rThumb1
                {
                  OFFSET -0.786 0.112 2.5817
                  CHANNELS 3 Zrotation Xrotation Yrotation
                  JOINT rThumb2
                  {
                    OFFSET -0.3601 -0.878 4.2331
                    CHANNELS 3 Zrotation Xrotation Yrotation
                    JOINT rThumb2_End
                    {
                      OFFSET -1.8127 -1.216 2.2227
                      CHANNELS 3 Zrotation Xrotation Yrotation
                      End Site
                      {
                        OFFSET -0.0181 -0.0122 0.0222
                      }
                    }
                  }
                }
                JOINT rCarpal1
                {
                  OFFSET -0.9571 1.114 1.7695
                  CHANNELS 3 Zrotation Xrotation Yrotation
                  JOINT rIndex1
                  {
                    OFFSET -4.1246 0.487 4.1451
                    CHANNELS 3 Zrotation Xrotation Yrotation
                    JOINT rIndex2
                    {
                      OFFSET -3.4052 -1.454 2.7682
                      CHANNELS 3 Zrotation Xrotation Yrotation
                      JOINT rIndex2_End
                      {
                        OFFSET -1.4531 -1.795 1.2713
                        CHANNELS 3 Zrotation Xrotation Yrotation
                        End Site
                        {
                          OFFSET -0.0145 -0.018 0.0127
                        }
                      }
                    }
                  }
                  JOINT rMid1
                  {
                    OFFSET -5.6954 0.21 2.1184
                    CHANNELS 3 Zrotation Xrotation Yrotation
                    JOINT rMid2
                    {
                      OFFSET -3.9766 -1.54 2.3863
                      CHANNELS 3 Zrotation Xrotation Yrotation
                      JOINT rMid2_End
                      {
                        OFFSET -1.4042 -1.926 1.125
                        CHANNELS 3 Zrotation Xrotation Yrotation
                        End Site
                        {
                          OFFSET -0.014 -0.0193 0.0113
                        }
                      }
                    }
                  }
                }
                JOINT rCarpal2
                {
                  OFFSET -2.0956 0.66 -0.3894
                  CHANNELS 3 Zrotation Xrotation Yrotation
                  JOINT rRing1
                  {
                    OFFSET -5.0395 -0.09 2.4971
                    CHANNELS 3 Zrotation Xrotation Yrotation
                    JOINT rRing2
                    {
                      OFFSET -3.7921 -1.552 1.4806
                      CHANNELS 3 Zrotation Xrotation Yrotation
                      JOINT rRing2_End
                      {
                        OFFSET -1.4655 -1.808 0.9609
                        CHANNELS 3 Zrotation Xrotation Yrotation
                        End Site
                        {
                          OFFSET -0.0147 -0.0181 0.0096
                        }
                      }
                    }
                  }
                  JOINT rPinky1
                  {
                    OFFSET -4.9141 -1.269 0.3592
                    CHANNELS 3 Zrotation Xrotation Yrotation
                    JOINT rPinky2
                    {
                      OFFSET -3.1477 -1.685 0.8462
                      CHANNELS 3 Zrotation Xrotation Yrotation
                      JOINT rPinky2_End
                      {
                        OFFSET -0.8055 -1.585 0.7955
                        CHANNELS 3 Zrotation Xrotation Yrotation
                        End Site
                        {
                          OFFSET -0.0081 -0.0158 0.008
                        }
                      }
                    }
                  }
                }
              }
            }
          }
        }
      }
    }
  }
  JOINT lThigh
  {
    OFFSET 8.367 -8.2066 0.5982
    CHANNELS 3 Zrotation Xrotation Yrotation
    JOINT lShin
    {
      OFFSET 2.1923 -43.463 -0.4932
      CHANNELS 3 Zrotation Xrotation Yrotation
      JOINT lFoot
      {
        OFFSET 0.7333 -45.8593 -2.6451
        CHANNELS 3 Zrotation Xrotation Yrotation
        End Site
        {
          OFFSET 2.6618 -4.2699 12.3931
        }
      }
    }
  }
  JOINT rThigh
  {
    OFFSET -8.367 -8.2066 0.5982
    CHANNELS 3 Zrotation Xrotation Yrotation
    JOINT rShin
    {
      OFFSET -2.1923 -43.463 -0.4931
      CHANNELS 3 Zrotation Xrotation Yrotation
      JOINT rFoot
      {
        OFFSET -0.7333 -45.8593 -2.6451
        CHANNELS 3 Zrotation Xrotation Yrotation
        End Site
        {
          OFFSET -2.6618 -4.2699 12.3931
        }
      }
    }
  }
}
MOTION
Frames:	6
Frame Time:	0.0333333
42.2929 34.9253 37.1718 -179.996 51.0054 8.95158e-011 -0.172885 -1.98781 0.1347 -0.341399 -3.97602 0.263633 -0.341399 -3.97601 0.263633 1.65117e-007 15.9934 7.78221e-007 -2.40834e-007 21.9179 7.00339e-008 6.16073 1.44713 17.8843 -13.5711 58.7792 31.266 37.2695 44.0451 -59.977 -0.0808473 -1.30216 8.31972 -1.03354e-006 -2.10235e-006 1.28973e-006 1.85626e-006 1.83116e-006 1.95099e-006 -1.03354e-006 -2.10235e-006 1.28973e-006 1.59028e-015 -6.36111e-015 -0 -1.03354e-006 -2.10235e-006 1.28973e-006 1.85626e-006 1.83116e-006 1.95099e-006 -1.03354e-006 -2.10235e-006 1.28973e-006 -1.03354e-006 -2.10235e-006 1.28973e-006 1.85626e-006 1.83116e-006 1.95099e-006 -1.03354e-006 -2.10235e-006 1.28973e-006 1.59028e-015 -6.36111e-015 -0 -1.03354e-006 -2.10235e-006 1.28973e-006 1.85626e-006 1.83116e-006 1.95099e-006 -1.03354e-006 -2.10235e-006 1.28973e-006 -1.03354e-006 -2.10235e-006 1.28973e-006 1.85626e-006 1.83116e-006 1.95099e-006 -1.03354e-006 -2.10235e-006 1.28973e-006 -6.18127 1.45136 -17.9018 17.7905 57.7974 -35.4992 -37.8683 43.0293 59.4449 0.069168 -1.07445 -8.34632 -1.57103e-006 7.2652e-007 3.88373e-006 -8.0992e-007 1.47882e-007 2.14683e-007 -8.0992e-007 1.47882e-007 2.14683e-007 -1.59028e-015 0 3.18055e-015 -1.57103e-006 7.2652e-007 3.88373e-006 -8.0992e-007 1.47882e-007 2.14683e-007 -8.0992e-007 1.47882e-007 2.14683e-007 -1.57103e-006 7.2652e-007 3.88373e-006 -8.0992e-007 1.47882e-007 2.14683e-007 -8.0992e-007 1.47882e-007 2.14683e-007 -1.59028e-015 0 3.18055e-015 -1.57103e-006 7.2652e-007 3.88373e-006 -8.0992e-007 1.47882e-007 2.14683e-007 -8.0992e-007 1.47882e-007 2.14683e-007 -1.57103e-006 7.2652e-007 3.88373e-006 -8.0992e-007 1.47882e-007 2.14683e-007 -8.0992e-007 1.47882e-007 2.14683e-007 42.1527 30.17 31.4634 64.4335 37.6907 -63.4675 -11.2451 21.7334 -16.6939 -43.3692 29.9764 -32.1193 -63.8917 37.3684 63.176 9.39324 22.0751 18.218 
42.2938 34.9245 37.1726 -179.996 51.0054 8.95158e-011 -0.172729 -1.95772 0.134978 -0.341138 -3.91577 0.264279 -0.341138 -3.91578 0.264278 -9.98013e-006 15.9926 4.67609e-006 9.7629e-009 21.341 -3.04029e-007 6.16072 1.44708 17.8844 -13.551 58.7831 31.2419 37.2695 44.0451 -59.977 -0.0808521 -1.30216 8.31971 8.10473e-007 1.59969e-007 -2.04594e-007 8.10473e-007 1.59969e-007 -2.04594e-007 -8.10473e-007 -1.59969e-007 2.04594e-007 1.76556e-031 3.18055e-015 -3.18055e-015 8.10473e-007 1.59969e-007 -2.04594e-007 8.10473e-007 1.59969e-007 -2.04594e-007 -8.10473e-007 -1.59969e-007 2.04594e-007 8.10473e-007 1.59969e-007 -2.04594e-007 8.10473e-007 1.59969e-007 -2.04594e-007 -8.10473e-007 -1.59969e-007 2.04594e-007 1.76556e-031 3.18055e-015 -3.18055e-015 8.10473e-007 1.59969e-007 -2.04594e-007 8.10473e-007 1.59969e-007 -2.04594e-007 -8.10473e-007 -1.59969e-007 2.04594e-007 8.10473e-007 1.59969e-007 -2.04594e-007 8.10473e-007 1.59969e-007 -2.04594e-007 -8.10473e-007 -1.59969e-007 2.04594e-007 -6.18127 1.45131 -17.9018 17.7905 57.7974 -35.4992 -37.8683 43.0293 59.4449 0.06917 -1.07445 -8.34633 -8.10201e-007 1.47788e-007 2.13619e-007 -1.59028e-015 0 -3.18055e-015 -8.10201e-007 1.47788e-007 2.13619e-007 -1.59028e-015 0 -3.18055e-015 -8.10201e-007 1.47788e-007 2.13619e-007 -0 -1.27222e-014 -0 -8.10201e-007 1.47788e-007 2.13619e-007 -8.10201e-007 1.47788e-007 2.13619e-007 -0 -1.27222e-014 -0 -8.10201e-007 1.47788e-007 2.13619e-007 -1.59028e-015 0 -3.18055e-015 -8.10201e-007 1.47788e-007 2.13619e-007 -0 -1.27222e-014 -0 -8.10201e-007 1.47788e-007 2.13619e-007 -8.10201e-007 1.47788e-007 2.13619e-007 -0 -1.27222e-014 -0 -8.10201e-007 1.47788e-007 2.13619e-007 41.9257 30.2383 31.3268 64.4323 37.6901 -63.4611 -11.5332 21.7057 -16.396 -43.0514 30.0696 -31.949 -63.8908 37.3677 63.168 9.80054 22.051 17.7998 
42.2948 34.9237 37.1733 -179.996 51.0054 8.95158e-011 -0.172574 -1.9276 0.135257 -0.34088 -3.8556 0.264926 -0.34088 -3.85559 0.264926 -2.04423e-006 15.9933 5.01713e-007 8.44071e-008 20.7643 -4.06243e-008 6.16073 1.44712 17.8844 -13.5309 58.787 31.2178 37.2695 44.0451 -59.977 -0.0808504 -1.30217 8.31971 8.14033e-007 -2.72245e-007 3.24305e-006 3.06886e-008 2.07077e-006 -3.03495e-006 -8.07492e-007 -5.9191e-007 3.65006e-006 -3.18055e-015 -9.54166e-015 -0 8.14033e-007 -2.72245e-007 3.24305e-006 3.06886e-008 2.07077e-006 -3.03495e-006 -8.07492e-007 -5.9191e-007 3.65006e-006 8.14033e-007 -2.72245e-007 3.24305e-006 3.06886e-008 2.07077e-006 -3.03495e-006 -8.07492e-007 -5.9191e-007 3.65006e-006 -3.18055e-015 -9.54166e-015 -0 8.14033e-007 -2.72245e-007 3.24305e-006 3.06886e-008 2.07077e-006 -3.03495e-006 -8.07492e-007 -5.9191e-007 3.65006e-006 8.14033e-007 -2.72245e-007 3.24305e-006 3.06886e-008 2.07077e-006 -3.03495e-006 -8.07492e-007 -5.9191e-007 3.65006e-006 -6.18127 1.45134 -17.9018 17.7905 57.7974 -35.4992 -37.8683 43.0293 59.4449 0.069169 -1.07445 -8.34633 -8.10481e-007 1.47695e-007 2.12554e-007 -3.53113e-031 3.18055e-015 6.36111e-015 -8.10481e-007 1.47695e-007 2.12554e-007 -1.59028e-015 -6.36111e-015 -9.54166e-015 -8.10481e-007 1.47695e-007 2.12554e-007 1.76556e-031 3.18055e-015 -3.18055e-015 -8.10481e-007 1.47695e-007 2.12554e-007 -8.10481e-007 1.47695e-007 2.12554e-007 1.76556e-031 3.18055e-015 -3.18055e-015 -8.10481e-007 1.47695e-007 2.12554e-007 -1.59028e-015 -6.36111e-015 -9.54166e-015 -8.10481e-007 1.47695e-007 2.12554e-007 1.76556e-031 3.18055e-015 -3.18055e-015 -8.10481e-007 1.47695e-007 2.12554e-007 -8.10481e-007 1.47695e-007 2.12554e-007 1.76556e-031 3.18055e-015 -3.18055e-015 -8.10481e-007 1.47695e-007 2.12554e-007 41.6987 30.307 31.1905 64.4312 37.6894 -63.4547 -11.8211 21.6767 -16.0981 -42.7337 30.1635 -31.7791 -63.89 37.3671 63.1601 10.2076 22.0242 17.3819 
42.2957 34.9229 37.1741 -179.996 51.0054 8.95158e-011 -0.172418 -1.89753 0.135535 -0.340622 -3.79542 0.265572 -0.340622 -3.7954 0.265572 2.19684e-006 15.9934 -2.23207e-006 1.4656e-007 20.1876 4.41345e-008 6.16073 1.44713 17.8843 -13.5107 58.7908 31.1936 37.2695 44.0451 -59.977 -0.0808469 -1.30216 8.31972 3.18055e-015 3.18055e-015 3.18055e-015 -1.6221e-006 -3.1939e-007 4.04846e-007 -1.59028e-015 -6.36111e-015 3.18055e-015 1.59028e-015 3.18055e-015 -0 1.59028e-015 3.18055e-015 -0 -1.6221e-006 -3.1939e-007 4.04846e-007 -1.59028e-015 0 -3.18055e-015 1.59028e-015 3.18055e-015 -0 -1.6221e-006 -3.1939e-007 4.04846e-007 -1.59028e-015 0 -3.18055e-015 1.59028e-015 3.18055e-015 -0 1.59028e-015 3.18055e-015 -0 -1.6221e-006 -3.1939e-007 4.04846e-007 -1.59028e-015 0 -3.18055e-015 1.59028e-015 3.18055e-015 -0 -1.6221e-006 -3.1939e-007 4.04846e-007 -1.59028e-015 0 -3.18055e-015 -6.18127 1.45135 -17.9018 17.7905 57.7974 -35.4992 -37.8683 43.0293 59.4449 0.0691732 -1.07445 -8.34631 1.91672e-006 1.32632e-006 -5.6558e-007 -1.10596e-006 -1.47392e-006 3.5409e-007 1.91672e-006 1.32632e-006 -5.6558e-007 -3.18055e-015 -3.18055e-015 -3.18055e-015 1.91672e-006 1.32632e-006 -5.6558e-007 -1.10596e-006 -1.47392e-006 3.5409e-007 1.91672e-006 1.32632e-006 -5.6558e-007 1.91672e-006 1.32632e-006 -5.6558e-007 -1.10596e-006 -1.47392e-006 3.5409e-007 1.91672e-006 1.32632e-006 -5.6558e-007 -3.18055e-015 -3.18055e-015 -3.18055e-015 1.91672e-006 1.32632e-006 -5.6558e-007 -1.10596e-006 -1.47392e-006 3.5409e-007 1.91672e-006 1.32632e-006 -5.6558e-007 1.91672e-006 1.32632e-006 -5.6558e-007 -1.10596e-006 -1.47392e-006 3.5409e-007 1.91672e-006 1.32632e-006 -5.6558e-007 41.4717 30.3762 31.0543 64.4301 37.6888 -63.4483 -12.1088 21.6462 -15.8006 -42.4161 30.2583 -31.6097 -63.8893 37.3665 63.1524 10.6143 21.9946 16.9642 
42.2967 34.9221 37.1749 -179.996 51.0054 8.95158e-011 -0.172263 -1.86742 0.135813 -0.340364 -3.73525 0.266216 -0.340364 -3.73522 0.266217 7.18036e-007 15.9933 -8.73204e-007 -8.28924e-009 19.611 2.48001e-009 6.16073 1.44716 17.8843 -13.4905 58.7946 31.1695 37.2695 44.0451 -59.977 -0.0808536 -1.30216 8.3197 -4.77083e-015 -3.18055e-015 -0 -1.13045e-006 1.46311e-006 3.3798e-007 -8.11336e-007 -1.59558e-007 2.01337e-007 -1.59028e-015 -3.18055e-015 -0 -1.59028e-015 -6.36111e-015 3.18055e-015 -1.13045e-006 1.46311e-006 3.3798e-007 -8.11336e-007 -1.59558e-007 2.01337e-007 -1.59028e-015 -6.36111e-015 3.18055e-015 -1.13045e-006 1.46311e-006 3.3798e-007 -8.11336e-007 -1.59558e-007 2.01337e-007 -1.59028e-015 -3.18055e-015 -0 -1.59028e-015 -6.36111e-015 3.18055e-015 -1.13045e-006 1.46311e-006 3.3798e-007 -8.11336e-007 -1.59558e-007 2.01337e-007 -1.59028e-015 -6.36111e-015 3.18055e-015 -1.13045e-006 1.46311e-006 3.3798e-007 -8.11336e-007 -1.59558e-007 2.01337e-007 -6.18127 1.45136 -17.9018 17.7905 57.7974 -35.4992 -37.8683 43.0293 59.4449 0.0691734 -1.07446 -8.34632 8.11037e-007 -1.47507e-007 -2.10425e-007 -1.59028e-015 -3.18055e-015 -3.18055e-015 8.11037e-007 -1.47507e-007 -2.10425e-007 0 3.18055e-015 -0 8.11037e-007 -1.47507e-007 -2.10425e-007 -1.59028e-015 -6.36111e-015 -0 8.11037e-007 -1.47507e-007 -2.10425e-007 8.11037e-007 -1.47507e-007 -2.10425e-007 -1.59028e-015 -6.36111e-015 -0 8.11037e-007 -1.47507e-007 -2.10425e-007 0 3.18055e-015 -0 8.11037e-007 -1.47507e-007 -2.10425e-007 -1.59028e-015 -6.36111e-015 -0 8.11037e-007 -1.47507e-007 -2.10425e-007 8.11037e-007 -1.47507e-007 -2.10425e-007 -1.59028e-015 -6.36111e-015 -0 8.11037e-007 -1.47507e-007 -2.10425e-007 41.2449 30.4458 30.9184 64.4289 37.6883 -63.442 -12.3962 21.6144 -15.5032 -42.0985 30.3538 -31.4407 -63.8885 37.3658 63.1446 11.0206 21.9623 16.5469 
42.2976 34.9213 37.1756 -179.996 51.0054 8.95158e-011 -0.172105 -1.83734 0.136089 -0.340103 -3.67502 0.266858 -0.340103 -3.67502 0.266858 -8.35853e-006 15.9933 5.57087e-006 2.071e-007 19.0346 -9.28544e-008 6.16072 1.44706 17.8844 -13.4704 58.7985 31.1453 37.2695 44.0451 -59.977 -0.0808526 -1.30217 8.31972 -1.09664e-007 3.61309e-007 -2.67742e-006 -0 -6.36111e-015 -0 1.09664e-007 -3.61309e-007 2.67742e-006 4.77083e-015 3.18055e-015 -0 -1.09664e-007 3.61309e-007 -2.67742e-006 -1.59028e-015 -3.18055e-015 -0 1.09664e-007 -3.61309e-007 2.67742e-006 -1.09664e-007 3.61309e-007 -2.67742e-006 -1.59028e-015 -3.18055e-015 -0 1.09664e-007 -3.61309e-007 2.67742e-006 4.77083e-015 3.18055e-015 -0 -1.09664e-007 3.61309e-007 -2.67742e-006 -1.59028e-015 -3.18055e-015 -0 1.09664e-007 -3.61309e-007 2.67742e-006 -1.09664e-007 3.61309e-007 -2.67742e-006 -1.59028e-015 -3.18055e-015 -0 1.09664e-007 -3.61309e-007 2.67742e-006 -6.18128 1.45126 -17.9018 17.7905 57.7974 -35.4992 -37.8683 43.0293 59.4449 0.0691678 -1.07445 -8.34633 -1.76556e-031 3.18055e-015 3.18055e-015 8.11312e-007 -1.47413e-007 -2.09361e-007 2.22639e-014 -9.54166e-015 -9.54166e-015 1.59028e-015 0 3.18055e-015 3.18055e-015 0 6.36111e-015 8.11312e-007 -1.47413e-007 -2.09361e-007 2.06736e-014 -6.36111e-015 -1.27222e-014 3.18055e-015 0 6.36111e-015 8.11312e-007 -1.47413e-007 -2.09361e-007 2.06736e-014 -6.36111e-015 -1.27222e-014 1.59028e-015 0 3.18055e-015 3.18055e-015 0 6.36111e-015 8.11312e-007 -1.47413e-007 -2.09361e-007 2.06736e-014 -6.36111e-015 -1.27222e-014 3.18055e-015 0 6.36111e-015 8.11312e-007 -1.47413e-007 -2.09361e-007 2.06736e-014 -6.36111e-015 -1.27222e-014 41.018 30.5159 30.7827 64.4277 37.6876 -63.4357 -12.6834 21.5812 -15.206 -41.781 30.4502 -31.2722 -63.8876 37.3652 63.1368 11.4265 21.9273 16.13 
